<svg version="1.1" xmlns="http://www.w3.org/2000/svg" style="display: block;" viewBox="0 0 2048 2048" width="1024" height="1024" preserveAspectRatio="none">
<path transform="translate(0,0)" fill="rgb(203,205,223)" d="M 1128.37 1146.79 C 1130.45 1158.41 1134.14 1183.02 1144.53 1189.6 C 1149.05 1192.47 1153.47 1191.45 1158.41 1190.63 L 1159.46 1195.21 C 1162.44 1205.86 1163.66 1211.11 1169.53 1220.5 C 1175.3 1221.74 1180.37 1221.94 1186.26 1221.88 C 1217.92 1221.57 1249.6 1222.14 1281.24 1220.66 C 1285.48 1220.46 1291.22 1220.62 1295.42 1221.15 C 1287.43 1221.71 1280.3 1221.71 1272.28 1221.71 C 1272.49 1229.95 1273.65 1259.85 1272.29 1267.13 L 1272.01 1268.23 L 1179.41 1268.37 C 1152.89 1268.46 1128.28 1265.58 1104.05 1277.87 C 1094.62 1256.5 1087.02 1251.7 1066.83 1241.74 C 1050.35 1237.94 1035.79 1239.01 1018.91 1238.99 L 950.796 1239.08 C 1000.9 1269.93 999.401 1279.39 997.755 1337.24 C 996.372 1348.14 997.079 1376.59 994.979 1384.18 C 992.883 1390.72 995.29 1413.39 994.334 1422.62 C 991.398 1450.98 990.887 1481.6 989.22 1510.14 C 988.574 1521.22 990.087 1553.71 984.259 1561.27 C 974.098 1560.77 913.784 1559.1 909.415 1562.52 C 909.245 1562.65 909.13 1562.84 908.987 1563.01 C 906.837 1561.49 905.872 1559.87 905.754 1557.17 C 903.922 1515.37 900.116 1473.71 897.407 1431.96 C 896.816 1422.86 896.971 1389.36 894.589 1384.09 L 860.057 1383.94 L 860.047 1517.85 C 860.045 1525.2 859.472 1563.06 860.428 1567.27 C 862.35 1567.83 861.544 1567.81 862.803 1567.72 C 877.56 1568.45 894.096 1568.05 909.006 1567.99 C 907.538 1578.89 908.754 1590.14 907.704 1598.18 C 884.064 1598.67 860 1597.77 836.351 1598.12 C 828.841 1598.23 808.184 1597.61 801.814 1599.45 C 800.818 1611.9 801.254 1629.09 801.232 1641.97 L 801.049 1712.87 C 786.682 1712.96 772.315 1712.97 757.948 1712.88 L 653.891 1712.96 C 635.67 1712.98 611.263 1713.64 593.559 1712.25 C 590.746 1709.87 587.801 1703.81 582.172 1700.37 C 567.286 1691.29 523.034 1677.2 516.423 1660.97 L 517.777 1659.85 C 520.863 1659.9 521.491 1660.1 524.479 1659.19 C 526.528 1655.5 523.085 1240.71 522.898 1197.78 C 558.423 1197.39 594.246 1198.26 629.697 1197.35 C 646.502 1196.87 663.825 1197.04 680.676 1197 L 777.932 1197.01 C 787.152 1197.02 815.738 1196.51 823.41 1197.52 C 847.251 1196.07 881.464 1197.06 906.052 1197.19 C 913.89 1197.26 921.779 1197.43 929.605 1197.09 L 929.365 1179.22 C 962.128 1178.84 995.443 1179.11 1028.25 1179.06 C 1055.53 1178.89 1082.82 1178.87 1110.1 1179.01 L 1127.73 1178.91 C 1127.7 1168.42 1127.56 1157.24 1128.37 1146.79 z M 818.099 1567.12 C 816.491 1553.19 817.017 1535.85 817.013 1521.51 C 817.002 1475.9 815.614 1430.02 816.14 1384.45 C 811.601 1385.23 806.315 1384.96 801.641 1384.92 C 800.142 1401.1 801.313 1429 801.267 1446.13 L 801.064 1568.04 C 806.531 1567.82 812.718 1567.73 818.099 1567.12 z"/>
<path transform="translate(0,0)" fill="rgb(227,228,234)" d="M 1128.37 1146.79 C 1130.45 1158.41 1134.14 1183.02 1144.53 1189.6 C 1149.05 1192.47 1153.47 1191.45 1158.41 1190.63 L 1159.46 1195.21 C 1162.44 1205.86 1163.66 1211.11 1169.53 1220.5 C 1175.3 1221.74 1180.37 1221.94 1186.26 1221.88 C 1217.92 1221.57 1249.6 1222.14 1281.24 1220.66 C 1285.48 1220.46 1291.22 1220.62 1295.42 1221.15 C 1287.43 1221.71 1280.3 1221.71 1272.28 1221.71 C 1272.49 1229.95 1273.65 1259.85 1272.29 1267.13 L 1272.01 1268.23 L 1179.41 1268.37 C 1152.89 1268.46 1128.28 1265.58 1104.05 1277.87 C 1094.62 1256.5 1087.02 1251.7 1066.83 1241.74 C 1050.35 1237.94 1035.79 1239.01 1018.91 1238.99 L 950.796 1239.08 C 1000.9 1269.93 999.401 1279.39 997.755 1337.24 C 996.372 1348.14 997.079 1376.59 994.979 1384.18 C 992.883 1390.72 995.29 1413.39 994.334 1422.62 C 991.398 1450.98 990.887 1481.6 989.22 1510.14 C 988.574 1521.22 990.087 1553.71 984.259 1561.27 C 974.098 1560.77 913.784 1559.1 909.415 1562.52 C 909.245 1562.65 909.13 1562.84 908.987 1563.01 C 906.837 1561.49 905.872 1559.87 905.754 1557.17 C 903.922 1515.37 900.116 1473.71 897.407 1431.96 C 896.816 1422.86 896.971 1389.36 894.589 1384.09 L 860.057 1383.94 L 860.047 1517.85 C 860.045 1525.2 859.472 1563.06 860.428 1567.27 C 862.35 1567.83 861.544 1567.81 862.803 1567.72 C 877.56 1568.45 894.096 1568.05 909.006 1567.99 C 907.538 1578.89 908.754 1590.14 907.704 1598.18 C 884.064 1598.67 860 1597.77 836.351 1598.12 C 828.841 1598.23 808.184 1597.61 801.814 1599.45 C 800.818 1611.9 801.254 1629.09 801.232 1641.97 L 801.049 1712.87 C 786.682 1712.96 772.315 1712.97 757.948 1712.88 C 755.466 1707.15 756.885 1249.77 757.257 1198.32 C 768.44 1198.25 815.927 1199.2 823.41 1197.52 C 847.251 1196.07 881.464 1197.06 906.052 1197.19 C 913.89 1197.26 921.779 1197.43 929.605 1197.09 L 929.365 1179.22 C 962.128 1178.84 995.443 1179.11 1028.25 1179.06 C 1055.53 1178.89 1082.82 1178.87 1110.1 1179.01 L 1127.73 1178.91 C 1127.7 1168.42 1127.56 1157.24 1128.37 1146.79 z M 818.099 1567.12 C 816.491 1553.19 817.017 1535.85 817.013 1521.51 C 817.002 1475.9 815.614 1430.02 816.14 1384.45 C 811.601 1385.23 806.315 1384.96 801.641 1384.92 C 800.142 1401.1 801.313 1429 801.267 1446.13 L 801.064 1568.04 C 806.531 1567.82 812.718 1567.73 818.099 1567.12 z"/>
<path transform="translate(0,0)" fill="rgb(217,131,64)" d="M 801.713 1239.09 L 950.796 1239.08 C 1000.9 1269.93 999.401 1279.39 997.755 1337.24 C 996.372 1348.14 997.079 1376.59 994.979 1384.18 C 992.883 1390.72 995.29 1413.39 994.334 1422.62 C 991.398 1450.98 990.887 1481.6 989.22 1510.14 C 988.574 1521.22 990.087 1553.71 984.259 1561.27 C 974.098 1560.77 913.784 1559.1 909.415 1562.52 C 909.245 1562.65 909.13 1562.84 908.987 1563.01 C 906.837 1561.49 905.872 1559.87 905.754 1557.17 C 903.922 1515.37 900.116 1473.71 897.407 1431.96 C 896.816 1422.86 896.971 1389.36 894.589 1384.09 L 860.057 1383.94 C 852.153 1383.77 823.074 1383.22 816.14 1384.45 C 811.601 1385.23 806.315 1384.96 801.641 1384.92 C 802.438 1373.27 801.827 1353.38 801.855 1341.09 C 801.565 1307.09 801.518 1273.09 801.713 1239.09 z"/>
<path transform="translate(0,0)" fill="rgb(238,195,38)" d="M 801.855 1341.09 L 890.911 1341.01 C 891.468 1348.33 892.889 1380.05 894.589 1384.09 L 860.057 1383.94 C 852.153 1383.77 823.074 1383.22 816.14 1384.45 C 811.601 1385.23 806.315 1384.96 801.641 1384.92 C 802.438 1373.27 801.827 1353.38 801.855 1341.09 z"/>
<path transform="translate(0,0)" fill="rgb(248,248,249)" d="M 1066.83 1241.74 C 1076.2 1236.81 1245.94 1239.21 1271.71 1239.01 C 1271.69 1246.74 1271.27 1259.9 1272.29 1267.13 L 1272.01 1268.23 L 1179.41 1268.37 C 1152.89 1268.46 1128.28 1265.58 1104.05 1277.87 C 1094.62 1256.5 1087.02 1251.7 1066.83 1241.74 z"/>
<path transform="translate(0,0)" fill="rgb(10,206,247)" d="M 1128.37 1146.79 C 1130.45 1158.41 1134.14 1183.02 1144.53 1189.6 C 1149.05 1192.47 1153.47 1191.45 1158.41 1190.63 L 1159.46 1195.21 C 1151.19 1198.9 959.556 1196.72 929.605 1197.09 L 929.365 1179.22 C 962.128 1178.84 995.443 1179.11 1028.25 1179.06 C 1055.53 1178.89 1082.82 1178.87 1110.1 1179.01 L 1127.73 1178.91 C 1127.7 1168.42 1127.56 1157.24 1128.37 1146.79 z"/>
<path transform="translate(0,0)" fill="rgb(227,228,234)" d="M 1798.5 1197.03 C 1831.01 1197.25 1872.01 1198.62 1903.89 1197.28 C 1905.42 1219.8 1904.28 1253.18 1904.23 1276.63 L 1904.33 1405.05 L 1904.92 1712.9 L 1688.99 1712.87 C 1649.05 1712.89 1605.37 1713.77 1565.72 1712.76 C 1552.16 1713.67 1527.6 1712.91 1513.31 1712.92 L 1409.37 1713.07 C 1408.96 1704.85 1409.19 1695.13 1409.25 1686.86 C 1435.13 1687.46 1462.48 1687.04 1488.47 1687.03 L 1488.06 1655.1 C 1466.54 1655.09 1430.43 1654.01 1409.88 1655.72 C 1408.34 1649.34 1409.45 1587.66 1409.52 1577.15 C 1409.74 1527.72 1409.56 1478.29 1408.98 1428.86 C 1448.55 1429.48 1488.13 1429.53 1527.71 1429.03 C 1531.53 1410.08 1533.51 1386.84 1536.21 1367.42 C 1542.28 1323.79 1546.96 1280.11 1553.91 1236.58 C 1553.95 1227.48 1557.02 1207.68 1558.25 1198.06 C 1593.5 1197.69 1637.71 1196.85 1672.59 1198.13 C 1684.7 1196.39 1706.77 1196.98 1719.65 1196.98 L 1798.5 1197.03 z"/>
<path transform="translate(0,0)" fill="rgb(203,205,223)" d="M 1527.71 1429.03 C 1531.53 1410.08 1533.51 1386.84 1536.21 1367.42 C 1542.28 1323.79 1546.96 1280.11 1553.91 1236.58 C 1554.62 1261.63 1556.56 1285.38 1556.85 1311.31 C 1556.97 1352.9 1556.84 1394.5 1556.46 1436.09 L 1556.69 1605.5 C 1556.7 1640.73 1555.92 1676.43 1556.81 1711.61 C 1559.97 1711.69 1563.55 1711.21 1565.72 1712.76 C 1552.16 1713.67 1527.6 1712.91 1513.31 1712.92 L 1409.37 1713.07 C 1408.96 1704.85 1409.19 1695.13 1409.25 1686.86 C 1435.13 1687.46 1462.48 1687.04 1488.47 1687.03 L 1488.06 1655.1 C 1466.54 1655.09 1430.43 1654.01 1409.88 1655.72 C 1408.34 1649.34 1409.45 1587.66 1409.52 1577.15 C 1409.74 1527.72 1409.56 1478.29 1408.98 1428.86 C 1448.55 1429.48 1488.13 1429.53 1527.71 1429.03 z"/>
<path transform="translate(0,0)" fill="rgb(248,248,249)" d="M 1607.18 1391.47 L 1868.84 1391.49 C 1869.98 1478.4 1868.8 1567.84 1868.73 1654.95 L 1859.25 1655.1 C 1771.38 1656.07 1680.39 1655.62 1592.43 1655.16 C 1592.97 1627.66 1592.06 1595.99 1592.05 1568.12 L 1592.15 1391.74 L 1607.18 1391.47 z"/>
<path transform="translate(0,0)" fill="rgb(248,248,249)" d="M 1592.08 1239.07 C 1651.5 1239.64 1710.93 1239.7 1770.35 1239.27 C 1803.44 1239.1 1835.7 1239.84 1868.91 1239.07 L 1868.91 1352.99 C 1868.56 1353.98 1868.86 1353.29 1867.54 1354.8 C 1776.69 1356.13 1683.1 1355 1592.07 1354.93 C 1592.31 1316.31 1592.31 1277.69 1592.08 1239.07 z"/>
<path transform="translate(0,0)" fill="rgb(18,20,27)" d="M 1404.22 960.914 C 1414.64 965.823 1427.21 970.853 1438.74 971.82 C 1446.21 970.798 1586.23 971.56 1586.57 971.694 C 1586.58 983.934 1583.94 994.128 1582.07 1006.1 C 1573.48 1060.97 1567.8 1116.46 1560.66 1171.56 C 1559.52 1180.36 1558.72 1189.24 1558.25 1198.06 C 1557.02 1207.68 1553.95 1227.48 1553.91 1236.58 C 1546.96 1280.11 1542.28 1323.79 1536.21 1367.42 C 1533.51 1386.84 1531.53 1410.08 1527.71 1429.03 C 1488.13 1429.53 1448.55 1429.48 1408.98 1428.86 C 1393.65 1428.88 1375.67 1428.46 1360.56 1429.1 C 1346.07 1428.87 1331.57 1428.82 1317.08 1428.96 C 1306.3 1429.46 1294.49 1429.18 1283.5 1429.48 C 1283.9 1441.42 1281.8 1451.07 1281.17 1462.67 L 1275.13 1576.02 C 1274.65 1585.29 1273.5 1640.4 1270.91 1646.22 L 1269.36 1647.2 C 1262.26 1646.41 1199.58 1646.63 1193.55 1647.51 C 1189.73 1642.75 1192.93 1628.15 1189.79 1624.71 C 1178.61 1624.92 1167.44 1624.96 1156.26 1624.86 C 1154.76 1630.1 1155.37 1636 1154.35 1638.66 C 1154.18 1638.49 1154.04 1638.3 1153.85 1638.16 C 1151.41 1636.39 1082.77 1637.24 1075.72 1638.45 C 1074.89 1635.1 1074.6 1628.89 1074.29 1625.21 C 1070.96 1624.99 1069.77 1625.07 1066.56 1623.94 C 1065.58 1618.81 1067.51 1598.31 1067.98 1591.81 C 1069.45 1582.98 1069.19 1564.03 1070.95 1558.47 C 1064.26 1542.77 1061.7 1528.77 1057.83 1512.21 C 1051.27 1484.34 1044.96 1456.41 1038.9 1428.43 C 1035.98 1415.3 1032.54 1396.06 1028.71 1383.97 C 1017.46 1383.94 1006.22 1384.01 994.979 1384.18 C 997.079 1376.59 996.372 1348.14 997.755 1337.24 C 999.401 1279.39 1000.9 1269.93 950.796 1239.08 L 1018.91 1238.99 C 1035.79 1239.01 1050.35 1237.94 1066.83 1241.74 C 1087.02 1251.7 1094.62 1256.5 1104.05 1277.87 C 1128.28 1265.58 1152.89 1268.46 1179.41 1268.37 L 1272.01 1268.23 L 1272.29 1267.13 C 1273.65 1259.85 1272.49 1229.95 1272.28 1221.71 C 1280.3 1221.71 1287.43 1221.71 1295.42 1221.15 C 1311.9 1222.55 1306.52 1203.26 1300.74 1194.89 C 1298.2 1193.08 1294.83 1193.69 1291.47 1193.75 C 1297.72 1192.59 1318.65 1192.27 1325.89 1192.01 C 1325.85 1176.4 1325.71 1160.79 1325.49 1145.19 C 1311.94 1136.71 1291.88 1122.41 1276.55 1121.14 C 1271.18 1107.3 1257.19 1067.47 1254.82 1054.39 C 1257.25 1050.9 1258.31 1045.67 1259.77 1041.69 C 1266.16 1024.76 1270.08 1003.92 1285.77 993.072 C 1298.67 984.162 1320.47 979.855 1332.29 971.987 L 1336.35 972.5 C 1339.18 990.696 1355.94 1001.38 1373.57 995.224 C 1388.51 990 1397.9 974.572 1404.22 960.914 z M 1160.15 1573.66 C 1170.34 1582.17 1176.33 1584.29 1188.8 1589.5 C 1186.69 1552.05 1185.94 1514.92 1183.64 1477.52 C 1182.71 1462.3 1184.41 1443.76 1181.4 1428.97 L 1169.71 1429.19 C 1165.99 1457.7 1165.74 1492.81 1162.94 1522.05 C 1161.85 1533.4 1159.3 1563.1 1160.15 1573.66 z"/>
<path transform="translate(0,0)" fill="rgb(113,195,48)" d="M 1404.22 960.914 C 1414.64 965.823 1427.21 970.853 1438.74 971.82 C 1446.21 970.798 1586.23 971.56 1586.57 971.694 C 1586.58 983.934 1583.94 994.128 1582.07 1006.1 C 1573.48 1060.97 1567.8 1116.46 1560.66 1171.56 C 1559.52 1180.36 1558.72 1189.24 1558.25 1198.06 C 1557.02 1207.68 1553.95 1227.48 1553.91 1236.58 C 1546.96 1280.11 1542.28 1323.79 1536.21 1367.42 C 1533.51 1386.84 1531.53 1410.08 1527.71 1429.03 C 1488.13 1429.53 1448.55 1429.48 1408.98 1428.86 C 1393.65 1428.88 1375.67 1428.46 1360.56 1429.1 C 1346.07 1428.87 1331.57 1428.82 1317.08 1428.96 C 1306.3 1429.46 1294.49 1429.18 1283.5 1429.48 C 1285.03 1414.38 1285.46 1398.32 1286.11 1383.08 L 1361.09 1383.1 C 1372.11 1383.13 1384.32 1382.92 1395.19 1383.16 C 1476.94 1384.94 1482.77 1336.9 1483.21 1268.26 C 1413.62 1268.19 1341.45 1269.41 1272.01 1268.23 L 1272.29 1267.13 C 1273.65 1259.85 1272.49 1229.95 1272.28 1221.71 C 1280.3 1221.71 1287.43 1221.71 1295.42 1221.15 C 1311.9 1222.55 1306.52 1203.26 1300.74 1194.89 C 1298.2 1193.08 1294.83 1193.69 1291.47 1193.75 C 1297.72 1192.59 1318.65 1192.27 1325.89 1192.01 C 1325.85 1176.4 1325.71 1160.79 1325.49 1145.19 C 1311.94 1136.71 1291.88 1122.41 1276.55 1121.14 C 1271.18 1107.3 1257.19 1067.47 1254.82 1054.39 C 1257.25 1050.9 1258.31 1045.67 1259.77 1041.69 C 1266.16 1024.76 1270.08 1003.92 1285.77 993.072 C 1298.67 984.162 1320.47 979.855 1332.29 971.987 L 1336.35 972.5 C 1339.18 990.696 1355.94 1001.38 1373.57 995.224 C 1388.51 990 1397.9 974.572 1404.22 960.914 z"/>
<path transform="translate(0,0)" fill="rgb(238,195,38)" d="M 1438.74 971.82 C 1446.21 970.798 1586.23 971.56 1586.57 971.694 C 1586.58 983.934 1583.94 994.128 1582.07 1006.1 C 1573.48 1060.97 1567.8 1116.46 1560.66 1171.56 C 1559.52 1180.36 1558.72 1189.24 1558.25 1198.06 C 1557.02 1207.68 1553.95 1227.48 1553.91 1236.58 C 1546.96 1280.11 1542.28 1323.79 1536.21 1367.42 C 1533.51 1386.84 1531.53 1410.08 1527.71 1429.03 C 1488.13 1429.53 1448.55 1429.48 1408.98 1428.86 C 1393.65 1428.88 1375.67 1428.46 1360.56 1429.1 C 1346.07 1428.87 1331.57 1428.82 1317.08 1428.96 C 1306.3 1429.46 1294.49 1429.18 1283.5 1429.48 C 1285.03 1414.38 1285.46 1398.32 1286.11 1383.08 L 1361.09 1383.1 C 1372.11 1383.13 1384.32 1382.92 1395.19 1383.16 C 1476.94 1384.94 1482.77 1336.9 1483.21 1268.26 L 1483.04 1266.13 C 1483.66 1254.06 1483.24 1239.05 1482.64 1227.06 C 1482.71 1226.22 1483.16 1223.35 1484.11 1223.1 C 1498.48 1219.29 1511.9 1212.76 1519.51 1199.3 C 1532.24 1176.75 1524.21 1152.27 1520.2 1128.5 C 1513.15 1087.07 1505.45 1045.01 1492.22 1005.08 C 1485.19 983.843 1454.15 981.575 1438.74 971.82 z"/>
<path transform="translate(0,0)" fill="rgb(73,158,45)" d="M 1483.04 1266.13 C 1478.41 1257.78 1450.62 1248.09 1440.94 1243.85 L 1363.15 1209.77 C 1355.75 1206.55 1339.86 1200.41 1334.1 1196.42 C 1335.69 1195.89 1466.64 1220.54 1481.48 1223.37 L 1482.64 1227.06 C 1483.24 1239.05 1483.66 1254.06 1483.04 1266.13 z"/>
<path transform="translate(0,0)" fill="rgb(73,158,45)" d="M 1430.42 1059.77 C 1431.82 1061.97 1449.32 1135.35 1451.05 1142.86 C 1419.22 1143.81 1384.92 1143.35 1352.75 1143.77 C 1345.14 1143.89 1337.52 1143.79 1329.92 1143.46 C 1341.21 1140.77 1354.71 1138.72 1366.34 1136.45 C 1387.41 1132.23 1408.51 1128.14 1429.63 1124.18 C 1430.27 1102.7 1429.65 1081.09 1430.42 1059.77 z"/>
<path transform="translate(0,0)" fill="rgb(196,112,44)" d="M 950.796 1239.08 L 1018.91 1238.99 C 1035.79 1239.01 1050.35 1237.94 1066.83 1241.74 C 1087.02 1251.7 1094.62 1256.5 1104.05 1277.87 C 1075.15 1296.17 1066.3 1318.54 1066.99 1352.46 C 1067.4 1373.03 1068.13 1393.7 1068.79 1414.27 C 1069.97 1449.73 1070.85 1485.2 1071.41 1520.67 C 1071.6 1530.11 1073.61 1550.75 1070.95 1558.47 C 1064.26 1542.77 1061.7 1528.77 1057.83 1512.21 C 1051.27 1484.34 1044.96 1456.41 1038.9 1428.43 C 1035.98 1415.3 1032.54 1396.06 1028.71 1383.97 C 1017.46 1383.94 1006.22 1384.01 994.979 1384.18 C 997.079 1376.59 996.372 1348.14 997.755 1337.24 C 999.401 1279.39 1000.9 1269.93 950.796 1239.08 z"/>
<path transform="translate(0,0)" fill="rgb(238,195,38)" d="M 997.755 1337.24 L 1018.23 1337.2 C 1021.8 1352.77 1025.29 1368.36 1028.71 1383.97 C 1017.46 1383.94 1006.22 1384.01 994.979 1384.18 C 997.079 1376.59 996.372 1348.14 997.755 1337.24 z"/>
<path transform="translate(0,0)" fill="rgb(70,10,44)" d="M 1160.15 1573.66 C 1170.34 1582.17 1176.33 1584.29 1188.8 1589.5 C 1188.92 1596.26 1188.89 1619.6 1189.79 1624.71 C 1178.61 1624.92 1167.44 1624.96 1156.26 1624.86 C 1157.84 1610.16 1157.89 1585.65 1160.15 1573.66 z"/>
<path transform="translate(0,0)" fill="rgb(236,191,89)" d="M 1169.71 1429.19 C 1171.47 1413.24 1171 1397.11 1172.67 1381.98 C 1174.99 1380.4 1173.76 1380.74 1176.5 1381.21 C 1181.18 1387.21 1180.19 1418.99 1181.4 1428.97 L 1169.71 1429.19 z"/>
<path transform="translate(0,0)" fill="rgb(39,3,24)" d="M 1067.98 1591.81 C 1072.09 1599.56 1076.17 1616.64 1074.29 1625.21 C 1070.96 1624.99 1069.77 1625.07 1066.56 1623.94 C 1065.58 1618.81 1067.51 1598.31 1067.98 1591.81 z"/>
<path transform="translate(0,0)" fill="rgb(18,20,27)" d="M 305.373 1065.13 C 309.139 1066.53 517.876 1082 521.096 1080.97 C 522.1 1077.81 522.426 1076.19 523.025 1072.91 C 525.264 1113.69 521.251 1157.57 522.898 1197.78 C 523.085 1240.71 526.528 1655.5 524.479 1659.19 C 521.491 1660.1 520.863 1659.9 517.777 1659.85 C 511.394 1658.05 452.164 1658.94 440.87 1659 L 427.165 1658.85 C 425.624 1647.86 425.933 1633.5 424.972 1622 C 424.321 1614.22 422.876 1604.51 422.811 1597.09 C 422.59 1586.83 424.054 1576.43 423.264 1566.17 C 418.659 1506.4 418.024 1446.11 414.054 1386.38 C 412.773 1381.17 410.341 1377.06 412.084 1371.56 C 413.409 1367.26 412.736 1362.33 412.012 1357.93 C 409.911 1345.16 411.041 1332.63 410.94 1319.81 C 410.87 1310.93 408.931 1301.56 409.322 1292.64 C 409.923 1278.96 408.001 1265.75 407.051 1252.17 C 406.675 1241.59 407.201 1230.76 406.737 1220.05 C 398.918 1241.38 398.219 1255.91 392.712 1276.2 C 385.793 1301.69 380.068 1324.79 374.056 1350.46 C 355.778 1429.65 337.082 1508.75 317.97 1587.76 C 315.917 1596.39 303.918 1653.26 301.507 1657.24 C 298.512 1659.57 295.09 1659.01 291.184 1659 C 268.488 1658.98 241.818 1659.6 219.43 1658.8 C 215.842 1658.83 211.195 1659.25 208.609 1657.07 C 205.46 1649.35 233.688 1500.21 237.317 1478.79 L 305.373 1065.13 z"/>
<path transform="translate(0,0)" fill="rgb(217,32,111)" d="M 332.233 837.748 C 331.337 835.911 330.458 834.067 329.596 832.215 C 322.708 817.373 324.435 811.513 324.052 796.977 C 319.073 740.087 379.345 728.975 403.664 695.453 C 424.956 666.104 413.008 621.49 460.475 601.897 C 499.23 585.9 550.398 595.623 572.038 634.797 C 579.575 648.443 571.694 665.008 566.688 677.363 C 566.977 703.893 561.818 731.106 544.067 752.702 C 535.95 762.576 526.073 762.906 514.115 763.288 C 508.5 774.193 510.805 780.489 504.484 790.148 C 554.156 810.801 547.655 810.732 564.369 859.462 C 568.603 871.806 598.38 964.1 602.019 966.857 C 604.277 966.228 603.523 966.867 604.575 965.357 C 607.613 967.846 682.941 967.352 695.089 968.68 C 700.352 968.659 707.566 967.769 711.866 969.057 C 713.663 971.739 713.098 970.263 713.277 973.752 C 712.96 986.212 712.506 1011.8 713.307 1023.93 C 713.496 1028.74 714.273 1028.1 712.001 1030.98 C 701.363 1035.19 681.117 1032.63 675.682 1036.08 L 674.581 1042 C 665.552 1039.77 651.428 1040.01 641.752 1039.95 C 632.22 1040.15 623.369 1042.04 613.897 1042.51 C 570.235 1043.46 562.878 1053.35 531.687 1014.33 C 528.516 1028.28 527.331 1042.42 525.275 1056.54 C 524.711 1060.41 523.859 1069.78 523.025 1072.91 C 522.426 1076.19 522.1 1077.81 521.096 1080.97 C 517.876 1082 309.139 1066.53 305.373 1065.13 C 297.223 1052.83 278.305 1011.73 272.77 997.092 C 264.076 974.096 274.405 951.952 284.754 931.329 C 290.329 920.217 296.014 909.16 301.808 898.16 L 302.691 896.254 C 311.62 878.216 325.131 855.553 332.233 837.748 z"/>
<path transform="translate(0,0)" fill="rgb(18,20,27)" d="M 332.233 837.748 C 331.337 835.911 330.458 834.067 329.596 832.215 C 322.708 817.373 324.435 811.513 324.052 796.977 C 319.073 740.087 379.345 728.975 403.664 695.453 C 424.956 666.104 413.008 621.49 460.475 601.897 C 499.23 585.9 550.398 595.623 572.038 634.797 C 579.575 648.443 571.694 665.008 566.688 677.363 C 566.977 703.893 561.818 731.106 544.067 752.702 C 535.95 762.576 526.073 762.906 514.115 763.288 C 508.5 774.193 510.805 780.489 504.484 790.148 L 499.205 789.144 C 492.073 816.565 482.639 841.79 456.641 857.023 C 432.973 870.707 404.828 874.401 378.43 867.287 C 357.804 861.693 346.412 853.011 332.233 837.748 z"/>
<path transform="translate(0,0)" fill="rgb(240,176,161)" d="M 527.421 696.208 C 535.99 693.924 544.674 691.418 552.724 687.532 C 557.072 685.433 562.807 678.427 566.688 677.363 C 566.977 703.893 561.818 731.106 544.067 752.702 C 535.95 762.576 526.073 762.906 514.115 763.288 C 508.5 774.193 510.805 780.489 504.484 790.148 L 499.205 789.144 C 504.343 768.841 509.765 742.113 513.432 721.586 C 504.768 716.405 498.435 709.317 500.381 698.41 C 501.15 693.849 503.859 689.845 507.807 687.434 C 517.036 681.91 523.446 688.299 527.421 696.208 z"/>
<path transform="translate(0,0)" fill="rgb(236,191,89)" d="M 641.752 1039.95 C 648.109 1038.5 670.578 1034.82 675.682 1036.08 L 674.581 1042 C 665.552 1039.77 651.428 1040.01 641.752 1039.95 z"/>
<path transform="translate(0,0)" fill="rgb(10,206,247)" d="M 1286.79 860.123 C 1287.45 884.664 1290.54 930.295 1308.26 947.663 C 1314.84 954.13 1323.6 957.912 1332.82 958.27 C 1331.66 963.507 1331.34 966.604 1332.29 971.987 C 1320.47 979.855 1298.67 984.162 1285.77 993.072 C 1270.08 1003.92 1266.16 1024.76 1259.77 1041.69 C 1258.31 1045.67 1257.25 1050.9 1254.82 1054.39 C 1257.19 1067.47 1271.18 1107.3 1276.55 1121.14 C 1291.88 1122.41 1311.94 1136.71 1325.49 1145.19 C 1325.71 1160.79 1325.85 1176.4 1325.89 1192.01 C 1318.65 1192.27 1297.72 1192.59 1291.47 1193.75 C 1294.83 1193.69 1298.2 1193.08 1300.74 1194.89 C 1306.52 1203.26 1311.9 1222.55 1295.42 1221.15 C 1291.22 1220.62 1285.48 1220.46 1281.24 1220.66 C 1249.6 1222.14 1217.92 1221.57 1186.26 1221.88 C 1180.37 1221.94 1175.3 1221.74 1169.53 1220.5 C 1163.66 1211.11 1162.44 1205.86 1159.46 1195.21 L 1158.41 1190.63 C 1153.47 1191.45 1149.05 1192.47 1144.53 1189.6 C 1134.14 1183.02 1130.45 1158.41 1128.37 1146.79 C 1127.56 1157.24 1127.7 1168.42 1127.73 1178.91 L 1110.1 1179.01 C 1082.82 1178.87 1055.53 1178.89 1028.25 1179.06 C 1027.92 1168.71 1027.9 1158.36 1028.18 1148.01 C 1028.05 1147.65 1027.99 1147.26 1027.79 1146.93 C 1025.52 1143.09 952.203 1129.98 941.52 1127.9 C 940.621 1123.58 939.982 1119.59 939.295 1115.24 C 942.754 1112.31 942.267 1111.06 946.132 1110.03 C 949.073 1104.61 952.276 1081.66 953.867 1073.95 C 968.266 1004.13 975.84 930.543 990.124 860.793 C 1000.34 859.677 1016.12 860.314 1026.89 860.425 C 1044.99 860.604 1063.09 860.646 1081.19 860.55 L 1286.79 860.123 z"/>
<path transform="translate(0,0)" fill="rgb(248,248,249)" d="M 1130.78 1106.14 C 1127.05 1094.71 1112.41 1057.78 1114.53 1049.3 C 1117.4 1046.98 1123.26 1045.58 1126.87 1045.59 C 1167.67 1045.67 1209.48 1044.86 1250.23 1046.04 C 1251.65 1048.36 1253.47 1051.92 1254.82 1054.39 C 1257.19 1067.47 1271.18 1107.3 1276.55 1121.14 C 1291.88 1122.41 1311.94 1136.71 1325.49 1145.19 C 1325.71 1160.79 1325.85 1176.4 1325.89 1192.01 C 1318.65 1192.27 1297.72 1192.59 1291.47 1193.75 C 1294.83 1193.69 1298.2 1193.08 1300.74 1194.89 C 1306.52 1203.26 1311.9 1222.55 1295.42 1221.15 C 1291.22 1220.62 1285.48 1220.46 1281.24 1220.66 C 1249.6 1222.14 1217.92 1221.57 1186.26 1221.88 C 1180.37 1221.94 1175.3 1221.74 1169.53 1220.5 C 1163.66 1211.11 1162.44 1205.86 1159.46 1195.21 L 1158.41 1190.63 C 1153.47 1191.45 1149.05 1192.47 1144.53 1189.6 C 1134.14 1183.02 1130.45 1158.41 1128.37 1146.79 L 1127.89 1141.43 C 1132.77 1137.42 1134.48 1136.53 1140.41 1134.49 C 1137.53 1124.93 1134.31 1115.48 1130.78 1106.14 z"/>
<path transform="translate(0,0)" fill="rgb(39,38,41)" d="M 1276.55 1121.14 C 1291.88 1122.41 1311.94 1136.71 1325.49 1145.19 C 1325.71 1160.79 1325.85 1176.4 1325.89 1192.01 C 1318.65 1192.27 1297.72 1192.59 1291.47 1193.75 C 1285.77 1194.03 1280.07 1194.34 1274.38 1194.68 C 1263.84 1189.32 1241.68 1174.17 1230.79 1167.04 C 1234.07 1158.96 1236.98 1150.42 1239.91 1142.18 C 1255.03 1144.36 1270.21 1147.76 1285.01 1144.44 L 1276.55 1121.14 z"/>
<path transform="translate(0,0)" fill="rgb(39,38,41)" d="M 1140.41 1134.49 C 1144.4 1133.14 1157.8 1127.51 1161 1130.59 C 1169.65 1138.95 1171.78 1156.23 1172.62 1167.66 C 1173.68 1181.91 1170.06 1184.53 1158.41 1190.63 C 1153.47 1191.45 1149.05 1192.47 1144.53 1189.6 C 1134.14 1183.02 1130.45 1158.41 1128.37 1146.79 L 1127.89 1141.43 C 1132.77 1137.42 1134.48 1136.53 1140.41 1134.49 z"/>
<path transform="translate(0,0)" fill="rgb(10,206,247)" d="M 1195.9 1115.94 C 1213.91 1115.68 1228.34 1135.37 1210.69 1146.48 C 1208.58 1146.61 1206.45 1146.56 1204.35 1146.31 C 1191.3 1144.76 1180.11 1126.94 1195.9 1115.94 z"/>
<path transform="translate(0,0)" fill="rgb(48,197,225)" d="M 1133.73 1059.91 C 1136.1 1059.05 1138.76 1059.52 1140.68 1061.16 C 1142.6 1062.8 1143.49 1065.34 1143.01 1067.82 C 1142.53 1070.3 1140.75 1072.32 1138.35 1073.12 C 1134.72 1074.33 1130.8 1072.4 1129.54 1068.79 C 1128.27 1065.18 1130.14 1061.23 1133.73 1059.91 z"/>
<path transform="translate(0,0)" fill="rgb(248,248,249)" d="M 1130.78 1106.14 C 1134.31 1115.48 1137.53 1124.93 1140.41 1134.49 C 1134.48 1136.53 1132.77 1137.42 1127.89 1141.43 L 1128.37 1146.79 C 1127.56 1157.24 1127.7 1168.42 1127.73 1178.91 L 1110.1 1179.01 C 1082.82 1178.87 1055.53 1178.89 1028.25 1179.06 C 1027.92 1168.71 1027.9 1158.36 1028.18 1148.01 C 1028.05 1147.65 1027.99 1147.26 1027.79 1146.93 C 1025.52 1143.09 952.203 1129.98 941.52 1127.9 C 940.621 1123.58 939.982 1119.59 939.295 1115.24 C 942.754 1112.31 942.267 1111.06 946.132 1110.03 C 952.435 1114.82 985.931 1112.75 995.426 1112.7 C 1000.58 1111.2 1019.26 1111.62 1025.35 1111.62 L 1091.99 1111.79 C 1101.3 1111.83 1118.84 1112.5 1127.28 1111.41 C 1129.88 1109.51 1129.61 1109.25 1130.78 1106.14 z"/>
<path transform="translate(0,0)" fill="rgb(217,131,64)" d="M 1028.18 1148.01 C 1031.66 1148.7 1038.73 1148.52 1042.17 1148.2 C 1061.35 1146.44 1072.91 1147.23 1089.4 1158.32 C 1098.34 1164.33 1105.74 1167.62 1110.1 1179.01 C 1082.82 1178.87 1055.53 1178.89 1028.25 1179.06 C 1027.92 1168.71 1027.9 1158.36 1028.18 1148.01 z"/>
<path transform="translate(0,0)" fill="rgb(48,197,225)" d="M 1130.78 1106.14 C 1134.31 1115.48 1137.53 1124.93 1140.41 1134.49 C 1134.48 1136.53 1132.77 1137.42 1127.89 1141.43 C 1127.48 1132.07 1127.37 1122.28 1127.11 1112.89 L 995.426 1112.7 C 1000.58 1111.2 1019.26 1111.62 1025.35 1111.62 L 1091.99 1111.79 C 1101.3 1111.83 1118.84 1112.5 1127.28 1111.41 C 1129.88 1109.51 1129.61 1109.25 1130.78 1106.14 z"/>
<path transform="translate(0,0)" fill="rgb(70,10,44)" d="M 776.027 922.943 C 787.227 941.206 800.209 963.594 828.422 950.002 C 835.794 946.451 839.589 937.908 840.237 929.829 C 855.55 935.98 901.696 953.623 905.534 969.017 C 914.668 1005.65 922.603 1045.16 931.008 1082.27 C 932.989 1091.02 935.476 1107.75 939.295 1115.24 C 939.982 1119.59 940.621 1123.58 941.52 1127.9 C 952.203 1129.98 1025.52 1143.09 1027.79 1146.93 C 1027.99 1147.26 1028.05 1147.65 1028.18 1148.01 C 1027.9 1158.36 1027.92 1168.71 1028.25 1179.06 C 995.443 1179.11 962.128 1178.84 929.365 1179.22 L 929.605 1197.09 C 921.779 1197.43 913.89 1197.26 906.052 1197.19 C 881.464 1197.06 847.251 1196.07 823.41 1197.52 C 815.738 1196.51 787.152 1197.02 777.932 1197.01 L 680.676 1197 C 663.825 1197.04 646.502 1196.87 629.697 1197.35 C 624.681 1145.98 621.289 1093.41 613.897 1042.51 C 623.369 1042.04 632.22 1040.15 641.752 1039.95 C 651.428 1040.01 665.552 1039.77 674.581 1042 L 675.682 1036.08 C 681.117 1032.63 701.363 1035.19 712.001 1030.98 C 714.273 1028.1 713.496 1028.74 713.307 1023.93 C 712.506 1011.8 712.96 986.212 713.277 973.752 C 713.098 970.263 713.663 971.739 711.866 969.057 C 707.566 967.769 700.352 968.659 695.089 968.68 C 696.407 966.294 698.958 961.619 701.096 960.081 C 722.097 944.975 752.074 936.099 774.923 923.561 L 776.027 922.943 z"/>
<path transform="translate(0,0)" fill="rgb(238,195,38)" d="M 613.897 1042.51 C 623.369 1042.04 632.22 1040.15 641.752 1039.95 C 651.428 1040.01 665.552 1039.77 674.581 1042 L 660.337 1115.9 C 657.925 1128.4 653.45 1148.06 652.723 1160.13 C 659.414 1174.44 671.789 1184.75 680.676 1197 C 663.825 1197.04 646.502 1196.87 629.697 1197.35 C 624.681 1145.98 621.289 1093.41 613.897 1042.51 z"/>
<path transform="translate(0,0)" fill="rgb(240,176,161)" d="M 713.277 973.752 C 724.589 973.836 806.554 973.809 813.856 975.849 C 820.754 989.174 781.603 989.725 775.041 990.386 C 775.314 1010.55 775.267 1018.34 759.417 1032.93 C 746.523 1033.19 742.142 1033.76 732.647 1024.16 L 713.307 1023.93 C 712.506 1011.8 712.96 986.212 713.277 973.752 z"/>
<path transform="translate(0,0)" fill="rgb(217,131,64)" d="M 823.809 1160.67 C 836.554 1159.2 854.629 1156.79 867.175 1156.7 C 877.626 1162.4 900.853 1180.5 906.554 1192.57 C 906.956 1193.43 906.292 1196.15 906.052 1197.19 C 881.464 1197.06 847.251 1196.07 823.41 1197.52 L 823.809 1160.67 z"/>
<path transform="translate(0,0)" fill="rgb(39,3,24)" d="M 745.564 1051.41 C 747.633 1060.33 748.687 1104.82 749.158 1116.91 C 775.294 1130.24 803.725 1138.82 826.885 1150.78 C 821.192 1150.32 815.975 1149.39 810.353 1148.47 C 785.093 1141.96 754.372 1135.77 728.303 1129.59 C 731.895 1114.4 735.269 1099.15 738.422 1083.86 C 740.295 1074.62 742.793 1059.84 745.564 1051.41 z"/>
<path transform="translate(0,0)" fill="rgb(113,195,48)" d="M 1760.65 758.578 C 1787.15 753.09 1791.17 774.551 1795.66 795.59 C 1804.59 837.363 1798.95 881.832 1790 923.1 C 1786.84 937.677 1781.74 959.191 1780.5 973.415 L 1780.99 972.688 C 1793.63 953.392 1809.4 916.925 1833.32 910.499 C 1863.4 902.418 1847.16 951.874 1843.26 963.674 C 1830.32 1002.85 1804.42 1035.28 1778.87 1066.91 C 1752.72 1066.73 1726.58 1066.72 1700.43 1066.88 C 1695.48 1053.84 1683.45 1038.52 1676.62 1025.93 C 1649.13 975.284 1623.53 929.509 1629.27 869.782 C 1632.24 865.107 1636.12 858.382 1642.56 858.056 C 1667.33 856.802 1679.3 891.81 1687.36 908.913 C 1701.8 939.534 1706.53 973.97 1717.59 1004.54 C 1715.11 944.388 1712.09 810.244 1754.32 764.057 C 1756.24 761.955 1758.32 760.212 1760.65 758.578 z"/>
<path transform="translate(0,0)" fill="rgb(18,20,27)" d="M 1287.36 859.029 C 1286.15 854.97 1283.38 853.868 1280.46 851.257 C 1276.15 847.405 1270.15 842.005 1269.05 836.113 C 1265.93 819.445 1268.36 803.709 1285.49 796.014 C 1311.44 784.351 1345.33 775.418 1373.76 780.378 C 1383.22 782.425 1393.93 798.763 1401.57 803.626 C 1402.89 804.462 1407.99 804.462 1409.81 804.474 C 1442.02 823.543 1424.44 872.848 1417.27 901.442 C 1414.64 911.904 1406.01 926.031 1396.68 931.606 C 1396.01 940.078 1400.53 953.302 1404.22 960.914 C 1397.9 974.572 1388.51 990 1373.57 995.224 C 1355.94 1001.38 1339.18 990.696 1336.35 972.5 L 1332.29 971.987 C 1331.34 966.604 1331.66 963.507 1332.82 958.27 C 1323.6 957.912 1314.84 954.13 1308.26 947.663 C 1290.54 930.295 1287.45 884.664 1286.79 860.123 L 1287.36 859.029 z"/>
<path transform="translate(0,0)" fill="rgb(39,38,41)" d="M 1287.36 859.029 C 1293.75 857.495 1306.61 857.548 1313.81 857.019 C 1329.34 855.88 1346.11 853.746 1361.6 853.612 C 1365 865.797 1367.09 875.196 1375.85 884.814 C 1377.44 879.809 1378.71 874.162 1383.61 872.021 C 1397.99 865.734 1404.87 882.93 1399.05 893.968 C 1396.14 899.498 1392.96 902.624 1389.07 906.723 C 1390.78 917.77 1391.38 921.648 1396.68 931.606 C 1396.01 940.078 1400.53 953.302 1404.22 960.914 C 1397.9 974.572 1388.51 990 1373.57 995.224 C 1355.94 1001.38 1339.18 990.696 1336.35 972.5 L 1332.29 971.987 C 1331.34 966.604 1331.66 963.507 1332.82 958.27 C 1323.6 957.912 1314.84 954.13 1308.26 947.663 C 1290.54 930.295 1287.45 884.664 1286.79 860.123 L 1287.36 859.029 z"/>
<path transform="translate(0,0)" fill="rgb(248,248,249)" d="M 1332.82 958.27 C 1337.8 961.3 1336.36 966.81 1336.35 972.5 L 1332.29 971.987 C 1331.34 966.604 1331.66 963.507 1332.82 958.27 z"/>
<path transform="translate(0,0)" fill="rgb(217,131,64)" d="M 749.074 797.258 C 752.918 790.512 756.579 787.598 762.128 782.019 C 766.143 778.882 774.432 765.58 777.991 763.435 C 788.227 757.267 814.532 755.533 825.714 753.66 C 850.067 749.635 892.388 748.188 896.439 781.049 C 898.663 799.097 888.891 801.853 880.648 812.264 C 881.474 840.138 882.561 881.588 864.673 904.798 C 856.816 914.992 832.869 908.736 840.237 929.829 C 839.589 937.908 835.794 946.451 828.422 950.002 C 800.209 963.594 787.227 941.206 776.027 922.943 C 776.134 920.248 776.711 917.583 777.164 914.901 C 778.472 911.158 779.884 894.51 780.351 889.725 C 777.64 887.158 774.967 884.552 772.332 881.908 C 751.051 860.333 748.767 825.995 749.074 797.258 z"/>
<path transform="translate(0,0)" fill="rgb(70,10,44)" d="M 749.074 797.258 C 752.918 790.512 756.579 787.598 762.128 782.019 C 766.143 778.882 774.432 765.58 777.991 763.435 C 788.227 757.267 814.532 755.533 825.714 753.66 C 850.067 749.635 892.388 748.188 896.439 781.049 C 898.663 799.097 888.891 801.853 880.648 812.264 C 867.758 816.855 830.401 814.455 814.248 814.966 C 802.722 827.384 805.842 834.271 798.741 844.07 L 797.596 843.59 C 795.857 839.012 795.683 836.685 790.613 834.18 C 787.372 832.604 783.595 832.557 780.317 834.055 C 772.441 837.637 771.04 847.56 774.951 854.534 C 777.296 858.717 781.168 861.635 784.872 864.52 C 783.084 872.986 782.085 881.655 780.351 889.725 C 777.64 887.158 774.967 884.552 772.332 881.908 C 751.051 860.333 748.767 825.995 749.074 797.258 z"/>
<path transform="translate(0,0)" fill="rgb(18,20,27)" d="M 1700.43 1066.88 C 1726.58 1066.72 1752.72 1066.73 1778.87 1066.91 C 1792.82 1066.98 1811.73 1066.45 1825.19 1067.33 C 1818.3 1105.25 1808.73 1140.43 1802.22 1178.16 C 1801.49 1182.35 1798.74 1194.28 1798.5 1197.03 L 1719.65 1196.98 C 1706.77 1196.98 1684.7 1196.39 1672.59 1198.13 C 1675.16 1197.42 1676.93 1197.29 1678.59 1195.27 C 1679.27 1183.82 1671.51 1155.7 1669.09 1143.02 C 1664.4 1118.45 1659.01 1093.29 1655.16 1068.54 C 1667.24 1066.11 1687.25 1066.98 1700.43 1066.88 z"/>
<path transform="translate(0,0)" fill="rgb(227,228,234)" d="M 1317.08 1428.96 C 1331.57 1428.82 1346.07 1428.87 1360.56 1429.1 C 1359.37 1492.03 1362.02 1555.8 1361.06 1618.81 C 1360.88 1630.76 1361.31 1644.01 1362.2 1655.94 C 1377.64 1655.92 1394.57 1656.23 1409.88 1655.72 C 1430.43 1654.01 1466.54 1655.09 1488.06 1655.1 L 1488.47 1687.03 C 1462.48 1687.04 1435.13 1687.46 1409.25 1686.86 C 1367.81 1685.68 1312.97 1685.91 1271.17 1686.88 C 1270.39 1675.82 1270.12 1665.09 1269.8 1654.01 L 1317.33 1654.12 C 1315.95 1623.02 1317.26 1581.12 1317.57 1549.41 C 1317.96 1509.26 1317.8 1469.11 1317.08 1428.96 z"/>
<path transform="translate(0,0)" fill="rgb(217,32,111)" d="M 440.87 1659 C 452.164 1658.94 511.394 1658.05 517.777 1659.85 L 516.423 1660.97 C 523.034 1677.2 567.286 1691.29 582.172 1700.37 C 587.801 1703.81 590.746 1709.87 593.559 1712.25 C 594.225 1717.78 594.816 1723.32 595.331 1728.87 C 544.547 1730.16 488.47 1728.81 437.04 1728.98 C 437.107 1704.01 439.437 1683.45 440.87 1659 z"/>
<path transform="translate(0,0)" fill="rgb(113,195,48)" d="M 1193.55 1647.51 C 1199.58 1646.63 1262.26 1646.41 1269.36 1647.2 L 1269.8 1654.01 C 1270.12 1665.09 1270.39 1675.82 1271.17 1686.88 C 1271.62 1692.26 1272.8 1708.16 1271.4 1712.67 L 1270.28 1713.2 C 1267.74 1713.07 1264.58 1713.13 1261.99 1713.12 C 1228.61 1711.65 1191.19 1713.85 1157.46 1713.01 C 1144.49 1712.68 1127.33 1713.9 1114.79 1712.59 C 1113.17 1710.22 1113.44 1707.73 1113.29 1704.76 C 1116.37 1701.95 1115.78 1697.69 1117.74 1695.05 C 1125.29 1684.93 1143.11 1675.85 1154.86 1672.74 C 1163.67 1668.87 1191.34 1656.04 1193.55 1647.51 z"/>
<path transform="translate(0,0)" fill="rgb(70,10,44)" d="M 908.987 1563.01 C 909.13 1562.84 909.245 1562.65 909.415 1562.52 C 913.784 1559.1 974.098 1560.77 984.259 1561.27 C 992.657 1582.39 1044.9 1587.74 1055.27 1609.71 C 1058.2 1615.93 1058.25 1618.39 1059.16 1624.98 L 956.766 1624.94 C 943.43 1624.94 920.233 1624.17 907.803 1625 C 907.718 1618.49 907.128 1604.08 907.704 1598.18 C 908.754 1590.14 907.538 1578.89 909.006 1567.99 C 894.096 1568.05 877.56 1568.45 862.803 1567.72 C 873.972 1565.04 899.561 1568.86 907.877 1564.88 L 907.59 1565.52 L 908.548 1566.1 L 908.987 1563.01 z"/>
<path transform="translate(0,0)" fill="rgb(217,32,111)" d="M 219.43 1658.8 C 241.818 1659.6 268.488 1658.98 291.184 1659 C 304.484 1691.94 340.951 1683.64 354.407 1714.7 C 355.628 1717.51 356.104 1725.49 356.389 1728.89 L 213.879 1728.96 C 214.061 1707.66 221.107 1674.49 219.43 1658.8 z"/>
<path transform="translate(0,0)" fill="rgb(73,158,45)" d="M 1075.72 1638.45 C 1082.77 1637.24 1151.41 1636.39 1153.85 1638.16 C 1154.04 1638.3 1154.18 1638.49 1154.35 1638.66 C 1153.85 1649.77 1155.25 1661.02 1154.86 1672.74 C 1143.11 1675.85 1125.29 1684.93 1117.74 1695.05 C 1115.78 1697.69 1116.37 1701.95 1113.29 1704.76 C 1104.51 1703.86 1085.32 1704.45 1075.57 1704.49 C 1049.74 1704.79 1023.91 1704.71 998.083 1704.26 C 1000.35 1678.28 1010.13 1676.98 1031.54 1667.27 C 1043.2 1661.99 1070.86 1650.3 1075.72 1638.45 z"/>
<path transform="translate(0,0)" fill="rgb(238,195,38)" d="M 598.386 914.241 C 657.979 913.805 717.576 914.025 777.164 914.901 C 776.711 917.583 776.134 920.248 776.027 922.943 L 774.923 923.561 C 752.074 936.099 722.097 944.975 701.096 960.081 C 698.958 961.619 696.407 966.294 695.089 968.68 C 682.941 967.352 607.613 967.846 604.575 965.357 C 605.516 955.854 599.977 926.01 598.386 914.241 z"/>
<path transform="translate(0,0)" fill="rgb(18,20,27)" fill-opacity="0.0117647" d="M 1646.81 1057.1 C 1646.83 1059.84 1647.06 1059.82 1645.65 1062.1 C 1643.31 1061.59 1644.54 1061.7 1641.94 1061.85 L 1640.26 1063.23 C 1641.55 1060.87 1644.6 1058.86 1646.81 1057.1 z"/>
</svg>